<svg width="200" height="200" viewBox="0 0 200 200" fill="none" xmlns="http://www.w3.org/2000/svg">
    <rect width="200" height="200" rx="28" fill="white"/>
    <path d="M20.6181 100.5C19.7269 107.535 18.8263 118.549 21.5 121C26.5063 128.737 40.2122 127.443 42.6324 136.5M20.6181 100.5C21.0602 97.0104 21.5 94.5 21.5 94.5C21.5 94.5 32.5 40.5 96 39.5C110.315 39.2746 121.981 39.7861 131.558 40.8512M20.6181 100.5C26.5 100.699 26.2053 98.3152 29.5 96.8931M144 55C146.5 56.5 160 74.5 160 84.5C160 92.7493 152.514 99.9778 128 100.853M144 55C143.453 54.6718 142.571 54.99 141.5 55.7974M144 55C154.5 58.5 144 58.1894 131.558 59.3219C119.116 60.4543 129.5 59.3219 110 64.5C90.5 69.6781 109 65.8367 96 80.9158C88.326 89.8171 91.2801 89.0599 99 86.9955M122 98C122.321 97.6192 122.637 97.2497 122.948 96.8911M122 98C121.105 99.0604 120.312 100.026 119.613 100.91M122 98C115.066 114.406 117.131 107.543 103 106.508M122 55C143.5 58.5 127 58.2529 141.5 64.5C142.715 65.0236 143.755 65.5051 144.638 65.9523M122 55C100.273 86.5 82 94 96 74.5C110 55 104.442 59.8468 118 54.1734M122 55C120.551 54.7641 119.223 54.4851 118 54.1734M168.5 52.4706C173.426 56.1128 176.381 60.1342 179 64C189.5 79.5 194 123 168.5 134C156.859 139.022 147.567 140.328 139.838 139.718M168.5 52.4706C164.46 49.4833 159.094 46.7512 151.5 44.5693M168.5 52.4706C163.251 51.9005 163.735 48.4088 152.5 50.8866M176.5 76C176.769 77.5037 177.083 78.8227 177.425 80M37 115.5C33 115.5 31 116 31.5 118.5C32 121 25 127.5 43 123C46.7859 122.054 50.1255 121.616 53 121.37M37 115.5C31.2498 115.397 31.4186 113.997 33.2031 110M37 115.5C40.6996 115.5 40.9774 117.211 50.4923 132.5M64.7063 110C64.9978 108.775 65.1439 107.439 65 106C64.5792 101.792 64.6896 99.7092 65.3311 98M64.7063 110C62.9723 117.284 56.0947 120.64 74.5 118.5C96 116 94 124.12 99 112C104 99.8797 106.5 97 110 86.5C112.844 77.9686 111.396 76.6992 115.85 72.5M64.7063 110C67.3195 119.63 65.2551 120.575 59 120.989M56.5 90C54.5 80 44.4846 80 56.5 74.5C67.1697 69.616 63.227 65.9148 74.114 66.5475M96 72.5C105.282 54.292 101.309 60.3019 92.0883 64.5M96 72.5C94.3819 75.6739 93.1124 78.4605 92.0883 80.9158M96 72.5C117.56 57.5934 107.5 71 149.845 77.5C192.191 84 150.315 80 168.5 91.2041C186.685 102.408 169.095 96.8931 162 114.467M59 80.8843C63.4901 77.5469 66.8284 74.1633 68 71C68.2668 70.2795 68.434 69.6146 68.5154 69M59 80.8843C77 73.2686 80.5815 100.558 71 121C68.7397 125.822 66.6555 128.382 65 129.239M59 80.8843C50.9248 86.8863 39.124 92.7391 29.5 96.8931M40.5 94.5C41 103 32 115.5 51.5 106C64.3585 99.7356 68.0858 104.909 71.4269 102.477M92.0883 64.5C88.3956 66.1813 83.8614 67.5719 79 67C77.0961 66.776 75.4871 66.6273 74.114 66.5475M92.0883 64.5C80.1767 58 85.5 66.6964 77.5 90C76.743 92.2051 76.0711 94.0511 75.4583 95.5942M107.5 74.5C107.318 79.4773 106.003 84.5511 105.306 88.5991M74.5 83.3567C78.2673 79.6081 83.1079 80.3792 96 80C106.058 79.7042 105.615 84.3086 104.404 90.5M74.5 83.3567C73.2996 84.5511 72.2082 86.2044 71 88.5C68.1038 94.0027 66.2142 95.6471 65.3311 98M74.5 83.3567C74.9289 82.5007 75.3403 81.688 75.7368 80.9158M56.5 108C45.5 106 43 116.5 44.5 100.5C44.6684 98.7032 44.7865 97.0767 44.871 95.5942M115.85 72.5C116.877 71.5311 118.219 70.4061 120 69C129.5 61.5 121.5 54 137 59C142.404 60.7434 147.323 60.4495 151.5 60.5M115.85 72.5C110.896 65.7476 109.154 65.6555 99 63.5248M131.558 88.3556C137.737 83.353 140.37 83.8242 142.5 78.5C145.249 71.6286 154.292 70.8404 144.638 65.9523M131.558 88.3556C136.18 85.0923 143.068 79.0007 145.729 75.3869M131.558 88.3556C141.555 84.2013 149.049 80.2134 145.729 75.3869M131.558 88.3556C129.24 90.2322 126.424 92.8791 122.948 96.8911M131.558 88.3556C128.587 89.5902 125.395 90.8395 122.201 92.1298M68.5154 69C69.9588 58.0991 44.4143 63.0464 69.5 55C75.8627 52.9591 81.13 50.7165 85.5997 48.7912M68.5154 69C84.0308 49.6444 82.5089 69.8804 94 86.5C105.491 103.12 100.5 98 114.5 90.5C123.273 85.8002 124.781 83.6528 128.622 80.8589M51.5 99C51.5 111.027 47.6482 112.133 51.8233 119.461M53 121.37C52.5511 120.687 52.1609 120.054 51.8233 119.461M53 121.37C55.3014 121.174 57.3046 121.101 59 120.989M65 129.239C90 121 86 119 99 115.5C112 112 112.5 115 114.5 121C116.5 127 108.353 129.239 124.269 129.239M65 129.239C60.4014 131.619 59.1115 120.859 66.5486 108.964M124.269 129.239C131.915 131.96 141.572 129.107 160 124.5C166.727 122.818 167.283 119.5 164.684 115.66M124.269 129.239C122.787 128.711 121.38 127.974 120 127C111.5 121 108 116 104 104.5C102.366 99.8036 103.568 94.7737 104.404 90.5M144 127C144.263 122.266 145.045 118.507 145.809 115.5M148.5 102.477C141.669 98.2725 135.097 95.0323 133.5 94.5C129.741 93.2471 127.727 88.5058 128.622 80.8589M148.5 102.477C142.926 113.722 141.79 111.829 135.5 111.6M148.5 102.477C151.351 104.232 154.248 106.155 156.846 108.12M157 83.3567C162.998 80.4805 165.983 70.5243 169.107 80M170.698 86.5C169.076 82.8037 166.213 78.3724 165.5 71C164.523 60.9044 159.304 60.5943 151.5 60.5M170.698 86.5C170.154 83.7085 169.629 81.5831 169.107 80M170.698 86.5C170.978 87.1366 171.22 87.7513 171.409 88.3556M173 118.5C150 121 147.618 144.5 145.809 115.5M145.809 115.5C146.65 112.188 147.47 109.788 147.551 108M145.729 75.3869C147.928 72.4004 147.24 71.1063 140 74.5C138.867 75.031 137.837 75.5295 136.896 76M145.729 75.3869C145.785 70.8869 165.753 81.7196 173 92.8849M145.729 75.3869C149.65 79.3308 152.271 81.966 153.891 83.6001M147.551 108C147.675 105.24 146.038 103.94 140 103C126.5 100.898 124.269 94.9545 124.269 102.477C124.269 110 117.5 114 129.5 112C131.944 111.593 133.891 111.542 135.5 111.6M147.551 108C147.88 108.338 148.196 108.659 148.5 108.964M131.558 90.5C161 69 157.5 47.5 163 67M163 67C168.5 86.5 181.316 70.1095 173 92.8849M163 67C159.685 73.104 165.5 71 173 69C180.5 67 175 69 173 75.3869C171 81.7739 170.029 83.3567 176.5 86.5C181.723 89.0369 179.492 88.4559 180.825 92.1298M173 92.8849C176.039 97.5668 176.841 102.307 173 106C171.448 107.492 169.946 109.149 168.5 110.868M164.684 115.66C156.05 126.962 150.043 137.016 148.5 118.5C146.5 94.5 146.5 86.5 151.5 84.5C152.223 84.2107 153.04 83.8901 153.891 83.6001M164.684 115.66C165.905 114.062 167.179 112.439 168.5 110.868M164.684 115.66C163.059 113.26 160.201 110.655 156.846 108.12M164.684 115.66C174.647 87.6762 186.5 81.5 179 70M151.5 60.5C164 41.5 160.088 49.9613 166.315 60.5M136.896 76C132.874 78.0104 130.476 79.51 128.622 80.8589M136.896 76C139.362 72.4071 142.002 69.0491 144.638 65.9523M151.5 44.5693C153.891 51.5 160.825 46.94 144.638 65.9523M151.5 44.5693C146.091 43.0152 139.553 41.7403 131.558 40.8512M118 54.1734C101.081 49.8591 104.455 39.275 90 50C76.0416 60.3562 66.5436 48.0052 71 59.3219M129.5 47C105 47.7532 111 38.5 100.5 50C98.1865 52.5338 95.1206 55.399 92.0883 58.1894M96 67C128 54.1734 127 48.1528 133.5 50C135.891 50.6796 138.229 49.5861 140 48.6892M96 67C83.4069 72.0477 79.7962 72.2708 80.6884 69.9838M96 67C64.7063 72.5 82.682 51 57.9426 78.5M141.5 55.7974C137.678 58.6799 131.453 67.7976 129.5 76C129.088 77.7297 128.798 79.3508 128.622 80.8589M141.5 55.7974C144.41 46.188 143.042 47.1483 140 48.6892M131.558 77.5C107.5 73.3315 123.5 67.2799 99 63.5248M99 63.5248C96.546 63.0098 93.6007 62.3758 90 61.5C89.5895 61.4002 89.1896 61.3047 88.7998 61.2136M71 59.3219C71.4922 60.5717 72.1546 62.1103 73 64C73.386 64.8629 73.7566 65.7124 74.114 66.5475M71 59.3219C59.0133 66.033 56.0401 60.1119 53 64.9196M50.0809 72.5C49.867 73.1241 49.521 73.7896 49 74.5C44.1176 81.1578 45.5394 83.8755 44.871 95.5942M50.0809 72.5C51.2121 68.6594 52.1089 66.3287 53 64.9196M50.0809 72.5C51.6933 67.7973 45.8083 65.4488 50.7889 64M53 102.477C76.4319 109.756 52.5 123.5 83 106C83.8853 105.492 84.7517 104.992 85.5997 104.5M122.948 96.8911C122.796 94.9848 122.555 93.4055 122.201 92.1298M122 118.5C126.5 123 130.637 130.389 140 127.444M140 127.444C142.547 128.205 145.785 129.183 150 130.5C174 138 154.5 131 173 124.5C187.373 119.45 181.525 120.134 180.311 112.953M140 127.444C128.043 123.875 131.289 125.095 120 118.5C106.306 110.5 117.5 100 96 106C86.8713 108.548 81.7988 109.022 78.6393 109.413M150 114C140 103 144.292 83.0036 136.896 104.5C113.5 123 133 149.5 109 118C90.4191 93.6125 126.5 77.0103 107.5 88.0052M107.5 88.0052C117.917 85.2488 116.853 86.3721 121.5 77.5C122.988 74.6598 123.963 72.6027 124.753 71M107.5 88.0052C106.819 88.1853 106.09 88.3819 105.306 88.5991M85.5997 104.5C84.5 108.614 75.1993 112.821 85.5997 115.66C98.5189 116.562 106.84 115.065 111.143 112M85.5997 104.5C110.613 89.9891 119.556 82.6136 122.201 92.1298M113.5 100.699C112.359 100.643 111.193 100.576 110 100.5C71 98 123.5 78.5 113.5 56.5C111.979 53.1538 110.516 50.5942 109.035 48.6892M113.5 100.699C115.626 100.803 117.662 100.873 119.613 100.91M113.5 100.699C115.617 105.315 114.967 109.276 111.143 112M105.306 88.5991C103.889 88.9916 102.297 89.451 100.5 90C90.5154 93.0508 85.7616 90.5633 82.0569 84.5M105.306 88.5991C104.094 95.6426 104.752 99.5804 116.5 94.5C118.37 93.6914 120.286 92.9033 122.201 92.1298M105.306 88.5991C80 91.5 89.8538 92.9545 71.4269 102.477M71.4269 102.477C72.6731 101.57 73.8657 99.6054 75.4583 95.5942M53 64.9196C57.5 63 64.5778 35.1151 50.7889 64M50.7889 64C52.1253 63.6113 54.2441 63.2873 57.5 63C74.1228 61.5333 71.6233 57.1982 88.7998 61.2136M33.5 98C31.5 99 25.5 96.5 35 84.5C37 86.5 32 92.6536 40.5 88.0052C49 83.3567 53 86.5 46 72.5C54 65.5 49 69.8896 43 75.3869C37 80.8843 21 84.0659 35 74.5C49 64.9341 45.5 51.5 46 63.5C46.9565 86.4558 36.742 102.589 44.871 95.5942M61 84.5C67.3639 94.5 73 93.2822 63 96.8911C62.3217 97.1359 61.6535 97.397 61 97.6679M56.5 99.7605C50.2717 102.932 47.3778 105.376 54.5 98C55.5335 96.9298 56.5367 95.7645 57.5 94.5571M56.5 99.7605C65.5 97.0438 65.3311 98 68 84.5C70.3727 72.4981 65.2174 84.8836 57.5 94.5571M56.5 99.7605C56.9802 99.516 57.4801 99.2671 57.9968 99.0181M46 115.66C43 114 39.4063 117.523 33.2031 110M33.2031 110C34.2116 107.741 35.7362 104.652 37 100.5C37 77.5 38.5 62.7687 38.5 75.3869C33.5 88.5991 35 87.7862 29.5 96.8931M33.2031 106C33.5 98 32 95 29.5 104.5C27 114 27.5 117.879 29.5 118.5C40.5 114 37 108.34 43 112C49 115.66 50 113.797 48 119.5C46 125.203 45.5 131.761 51.5 130.5C68.1398 127.425 76.4379 125.652 81.3299 124.5M90 122.378C97 130.008 94 121.669 100.5 118.5C107 115.331 108.955 119.5 96 121.37C94.4083 121.6 93.1487 121.798 92.0883 121.983M90 122.378C87.4372 122.911 85.8152 123.444 81.3299 124.5M90 122.378C90.6224 122.249 91.3004 122.119 92.0883 121.983M83 112C80.7353 112 65 120 77.5 117C90 114 92 112 94 110C96 108 100.5 100.699 94 100.699C87.5 100.699 84.8228 100.645 86.7028 95.5942M86.7028 95.5942C84.7658 99.4934 81.7784 100.744 71 103C69.259 104.983 67.7835 106.989 66.5486 108.964M86.7028 95.5942C88.1487 92.6837 89.0094 88.2974 92.0883 80.9158M92.0883 80.9158C87.5569 74.5 91.1751 68.3425 85.5997 74.5C80.0243 80.6575 77.411 82.5 82.0569 84.5M82.0569 84.5C80.6838 82.2526 79.4548 79.514 78.157 76.3841M86.7028 78.5C86.7028 77.5 88.078 78.1255 82.0569 90C72.24 83.3567 65.3538 93.1673 71.4269 80M71.4269 80C72.0604 78.6264 72.5408 77.4306 72.9039 76.3841M71.4269 80C44.1161 89.3511 64.4908 84.5 65.3311 98M92.0883 58.1894C62.6767 43.8789 88.5 59 79 64.5C70.491 69.4262 76.0213 67.3992 72.9039 76.3841M92.0883 58.1894C90.9746 59.2143 89.8655 60.2291 88.7998 61.2136M124.269 77.5C126.5 94.5 120.945 95.7051 128 100.853M128 100.853C125.4 100.945 122.608 100.967 119.613 100.91M135.5 111.6C146.5 112.906 142.5 129.923 148.5 108.964M148.5 108.964C151.977 112.457 154.414 116.611 155.83 118M153.891 83.6001C158.924 81.885 165.132 81.2418 160 94.5C157.927 99.8545 157.299 104.657 156.846 108.12M153.891 83.6001C158.298 88.0438 155.309 85.0859 150.965 80.9158M153.891 83.6001C150.623 88.2914 147.765 92.2438 145.294 95.5942M168.5 110.868C165.102 108.503 165.561 110.127 162 114.467M175 108.964C175.836 111.772 178.849 112.337 180.311 112.953M180.311 112.953C181.471 113.441 181.654 113.962 179 115.66C177.731 116.472 176.938 117.361 176.5 118.143M180.311 112.953C180.075 111.557 180.014 109.864 180.311 107.774M180.311 112.953C178.191 122.494 174.868 121.059 176.5 118.143M182.543 95.5942C182.685 89.1207 179.533 87.249 177.425 80M182.543 95.5942C181.666 94.1292 181.144 93.008 180.825 92.1298M182.543 95.5942C182.516 96.8014 182.375 98.1686 182.092 99.7605M166.315 60.5C153.891 55.4938 161.5 55.8266 150 55C138.5 54.1734 143.104 50.3784 140 48.6892M166.315 60.5C166.394 60.6341 166.475 61.164 166.559 61.2976M133.5 47C115.85 46.1188 127.57 34.4004 113.5 50C104.767 59.6819 90.5844 88.5476 78.6393 109.413M60.9167 136.5C61.8562 133.996 63.0196 130.976 65 128.5C71 121 66.5 124.5 71 115.5C73.5894 110.321 74.3577 109.944 78.6393 109.413M60.9167 136.5C59.0097 141.583 58.0245 144.539 53 136.5C52.0987 135.073 51.265 133.742 50.4923 132.5M60.9167 136.5C53.318 144.943 57.5 139.5 51.5 139.5C45.5 139.5 44.5 138 43 128.5C41.5 119 46.9752 128.5 61 132.5C64.8736 131.931 71.3385 122.166 78.6393 109.413M71 128.5C68.6226 131.67 78.7507 127.932 73 129.727M42.6324 136.5C42.8711 137.393 43 138.387 43 139.5C43 155 19 170 29.5 172.5H31.5L46.25 157L63 141.5C63.8333 141.333 65.0009 138.666 71 134C80 127 94.5042 126.434 103 127C113.323 127.688 122.777 138.372 139.838 139.718M42.6324 136.5C51.5 146.5 43.106 139.689 56.5 135.282M50.4923 132.5C68 132.5 65.5 132.455 73 129.727M73 129.727C71.4941 130.198 68.8994 131.047 64.7063 132.5C61.6317 133.565 58.9038 134.491 56.5 135.282M81.3299 124.5C103 124.5 96 127.444 105 124.5C117.536 120.399 114.5 126.486 118 112.541M118 112.541C120.616 114.597 124.898 117.197 129.5 123C138.639 134.523 135.779 127.732 142.5 120.693M118 112.541C114.513 109.799 113.988 108.023 119.613 100.91M118 112.541C109.278 88.5991 128.5 75.9911 99 86.9955M120 96.8911C121.719 96.8911 121.982 93.3569 118.488 91.2041M104.404 90.5C111.577 88.8328 115.992 89.6656 118.488 91.2041M83 96.8911C64.886 99.7605 55.1207 114.42 61 97.6679M61 97.6679C59.9549 98.1013 58.9475 98.56 57.9968 99.0181M65 80.9158C61.5109 88.0061 59.3322 94.051 57.9968 99.0181M78.157 76.3841C84.8309 64.5239 87.8161 65.6938 105 59C125 51.2092 122 61.5 140 71C140.343 71.181 141.026 71.7234 141.924 72.5M78.157 76.3841C73.8051 82.8878 74.5 83.3567 57.5 108C47.4527 122.565 48.9324 122.009 51.8233 119.461M78.157 76.3841C76.9307 73.4265 75.6429 70.1195 74.114 66.5475M78.157 76.3841C77.4055 77.7195 76.6073 79.2201 75.7368 80.9158M74.114 66.5475C60.2456 72.5 58.2111 59.8833 54.5 76.3841C50.7889 92.8849 46.4846 107.717 57.5 94.5571M72.9039 76.3841C90.7971 69 91.7225 52.1714 105.306 70.0902C117.942 86.759 104.193 87.3676 118.488 91.2041M122.201 92.1298C120.79 91.7977 119.56 91.4918 118.488 91.2041M148.5 92.8849C153.499 83.3567 163.43 73.2325 150.965 80.9158M150.965 80.9158C147.924 77.9969 144.22 74.4842 141.924 72.5M145.294 95.5942C133.86 111.098 130.708 113.711 133.5 117C136.896 121 128.5 120.257 140 122.378C150.47 124.31 148.288 126.887 154.805 121.37M145.294 95.5942C142.942 98.7609 138.293 102.374 138 94C137.707 85.6257 131.5 81.7976 140 86.5C148.5 91.2024 151 88.5454 144 88.5991C160 94.5 157.818 87.2395 162 93.5C166.182 99.7605 174.5 96.5265 163 103.263M145.294 95.5942C155.534 85.1885 147.812 89.8768 150 83.3567M163 103.263C163.866 102.099 165.119 100.71 167 99C171.867 94.5755 172.427 91.6192 171.409 88.3556M163 103.263C158.802 108.907 163.678 109.283 150 115.5C146.612 117.04 144.236 118.875 142.5 120.693M145.294 111.6C145.809 115.5 152.609 125.741 154.805 121.37M154.805 121.37C155.446 120.828 156.171 120.207 157 119.5C159.268 117.566 160.845 115.874 162 114.467M156.846 108.12C154.805 106.626 160.689 126.827 158.844 129.727C162.556 127.348 167.789 123.516 170.929 121M156.846 108.12C157.711 117.726 157.382 119.52 155.83 118M139.838 139.718C149.845 134.795 142.199 136.294 150 134C158.5 131.5 151.5 132.5 167 122.378C175.446 116.863 174.688 117.988 170.929 121M139.838 139.718C139.306 138.839 138.699 137.774 138 136.5C129.5 121 127.442 123.34 129.5 119.5C131.558 138.264 133.5 135.5 139.838 139.718ZM152.5 135.5C144 134 141.675 131 139.838 132.5C138 134 111.143 132.107 138 132.5C158.806 132.804 159 129.5 151.5 110C150.709 107.945 150.181 106.121 149.845 104.5M131.558 51.5C116.5 50 132.233 48.6892 109.035 48.6892M109.035 48.6892C103.346 41.3709 97.3933 43.7133 86.8892 48.2355M85.5997 48.7912C83 56.5 68.5648 61.0775 88.7998 61.2136M85.5997 48.7912C86.0371 48.6028 86.4668 48.4174 86.8892 48.2355M88.7998 61.2136C84.7807 64.9269 81.3803 68.2102 80.6884 69.9838M110 59C103 52.4706 106.4 53 96 50C92.3511 49.4909 89.3647 48.8715 86.8892 48.2355M66.4704 52.4706C62.3575 57.3306 61 57.7465 61 59.3219C61 61.2341 51.611 56.15 66.4704 52.4706ZM66.4704 52.4706C66.9432 51.912 67.4523 51.2947 68 50.6101M86.8892 48.2355C74.7787 45.1245 74.8968 41.618 69.5 48.6892C68.9706 49.3828 68.471 50.0213 68 50.6101M86.8892 48.2355C90 46.9135 102.847 42.5941 92.0883 44.5693C90.7909 44.8075 89.7106 45.0313 88.7998 45.245M68 50.6101C58.4317 53.0681 59.0462 53.498 63 53.0009M88.7998 45.245C82.1587 46.8036 84.5352 47.8274 77.5 50C73.5927 51.2067 66.7746 52.5262 63 53.0009M88.7998 45.245C112.316 45.245 94.6435 42.8377 120 45.245C151.5 48.2355 148 45.245 138 45.245M152.5 50.8866C150.791 51.2635 148.811 51.5 146.5 51.5C129 51.5 141.5 55.7974 133.5 61.5C127.664 65.6601 126.884 66.6775 124.753 71M152.5 50.8866C163 61.5 158.67 67.8106 164.684 63C165.428 62.405 166.046 61.8362 166.559 61.2976M169.107 80C167.515 85.5 171.653 80 170.698 61.5C164.897 58.0804 168.5 56.5 168.5 55.7974C168.5 55.1817 170.188 57.4819 166.559 61.2976M175 64C176.333 64.4892 179 66.3871 179 70M179 70C178.24 69.669 177.408 69.3253 176.5 69C171.491 67.2046 168.462 64.3399 166.559 61.2976M177.425 80C179.096 84.5 181.34 83.4071 180.825 92.1298M180.311 107.774C180.453 106.776 180.676 105.689 181 104.5C181.486 102.719 181.843 101.154 182.092 99.7605M180.311 107.774C179 108.964 179 108.527 179 103.263C179 98 181.64 95.021 182.092 99.7605M181 107.774C180.115 110.868 182.071 115.286 176.5 118.143M170.929 121C173 110 179.851 106.636 177.425 99.7605C175 92.8849 184.818 91.2111 171.409 88.3556M128 110C138 90 141 107.644 133.5 98C126 88.3556 121.616 119.616 131.558 98C141.5 76.3841 140.118 79.654 145.809 88.0052C151.5 96.3563 171.757 98.188 156.846 96.8911C141.936 95.5942 132.142 122.5 149.845 104.5M149.845 104.5C147 90.7408 158.097 91.5419 141.5 88.5991C122.948 85.3095 139.5 83.8435 120 83.6001C112.011 83.5004 104.358 85.5628 99 86.9955M168.5 94.5571C158.21 90.7991 127.744 94.7178 128.622 80.8589M141.924 72.5C124.269 69 111.506 72.1066 124.753 71M144.638 65.9523C138.486 63.6196 130.365 63.3375 121.5 64.5447M75.7368 80.9158C89.1203 72.9851 106.392 66.6021 121.5 64.5447M26.5 110C29.5 96.8931 28.5 96.5581 26.5 108.964C28.7067 107.774 27.5 132.5 23.5 114.5C22.0912 108.16 28.5146 107.759 31.5 107.303M51.8233 119.461C53.8238 117.698 56.5 114.981 56.5 115.66C56.5 116.838 54.7394 111.135 57.9968 99.0181M51.8233 119.461C46.2982 113.797 37.1566 106.439 31.5 107.303M59 127C57.8 127 58.5 94 59 77.5C58.6499 77.822 58.2968 78.1557 57.9426 78.5M66.5486 108.964C36.8329 106.618 47.8719 88.2858 57.9426 78.5M119.613 100.91C122 83.6318 150.943 72.5 116.5 78.5C82.0569 84.5 88.6311 72.9363 75.4583 95.5942M59 120.989C54.7156 107.774 27.1939 113.536 57.9968 99.0181M118.488 91.2041C146.6 112.541 145.649 117.5 155.83 118M154.805 108.12C112.631 110.714 140.957 113.512 111.143 112M78.6393 109.413C89.9881 106.56 97.6534 106.117 103 106.508M121.5 64.5447C84.9914 68.5864 72.5598 39.4677 80.6884 69.9838M103 106.508C135.5 118 125 124.685 142.5 120.693M71.4269 99C61.6261 127.444 61.5 133.69 56.5 135.282M50.0809 136.5C81.3299 123.113 68.011 128.305 92.0883 121.983M31.5 107.303C26.5 99.7605 21 114.276 33.5 92.1298C46 69.9838 37.9692 78.2026 48 67C58.0308 55.7974 36.7847 57.2105 63 53.0009M97.5 47.5C127.5 43.5 95 41.5 131.558 40.8512" stroke="black"/>
</svg>